<svg width="32" height="32" viewBox="0 0 32 32" fill="none" xmlns="http://www.w3.org/2000/svg">
<g clip-path="url(#clip0_87_2333)">
<path d="M28.9453 11.7935L28.9446 6.59422L23.9978 4.98974L20.9454 0.779251L16 2.39258L11.0545 0.779359L8.00221 4.98974L3.05544 6.59422L3.05469 11.7936L0 16L3.0548 20.2065L3.05544 25.4058L8.00221 27.0103L11.0546 31.2208L16 29.6074L20.9455 31.2207L23.9978 27.0103L28.9446 25.4058L28.9453 20.2064L32 16L28.9453 11.7935ZM10.4252 14.5183C9.89181 13.9816 9.5945 13.3061 9.5945 12.4917V11.7626C9.5945 10.9419 9.89019 10.2617 10.4205 9.72189C10.9509 9.18221 11.7204 8.91242 12.6991 8.91242C13.6901 8.91242 14.4367 9.18221 14.9668 9.72189C15.4972 10.2617 15.7481 10.942 15.7481 11.7626V12.4917C15.7481 13.3125 15.5048 13.9895 14.9744 14.5227C14.4441 15.0563 13.6854 15.3229 12.7069 15.3229C11.7221 15.323 10.9588 15.0547 10.4252 14.5183ZM13.235 21.8661L11.7484 21.118L18.481 10.3422L19.9678 11.0904L13.235 21.8661ZM22.3336 20.2471C22.3336 21.0741 22.0754 21.7543 21.5482 22.2877C21.021 22.8211 20.2711 23.0876 19.2925 23.0876C18.3078 23.0876 17.5374 22.8195 16.9975 22.2829C16.4581 21.7463 16.18 21.0677 16.18 20.2471V19.5179C16.18 18.7036 16.4577 18.0265 16.9944 17.4867C17.5309 16.9468 18.2933 16.6771 19.2716 16.6771C20.2626 16.6771 21.0187 16.9456 21.5458 17.4818C22.073 18.0186 22.3336 18.6972 22.3336 19.5179V20.2471Z" fill="#F05A5A"/>
<path d="M13.4563 13.2751C13.6299 13.0649 13.6967 12.803 13.6967 12.4893V11.7648C13.6967 11.4514 13.6282 11.1865 13.4514 10.97C13.2745 10.7535 13.0321 10.6453 12.7039 10.6453C12.3821 10.6453 12.1097 10.7535 11.9331 10.97C11.7564 11.1865 11.6455 11.4514 11.6455 11.7648V12.4893C11.6455 12.803 11.7615 13.0649 11.9381 13.2751C12.1148 13.4851 12.3743 13.5902 12.7091 13.5902C13.0309 13.5902 13.2826 13.4851 13.4563 13.2751Z" fill="#F05A5A"/>
<path d="M19.2762 18.4099C18.9479 18.4099 18.6841 18.5184 18.5075 18.7346C18.3304 18.951 18.231 19.2131 18.231 19.5203V20.2445C18.231 20.5459 18.3431 20.806 18.5453 21.0257C18.7473 21.2452 18.9991 21.3547 19.2895 21.3547C19.6808 21.3547 19.9405 21.2577 20.0795 21.063C20.2182 20.8687 20.2822 20.5959 20.2822 20.2445V19.5203C20.2822 19.213 20.2007 18.951 20.0207 18.7346C19.8407 18.5184 19.598 18.4099 19.2762 18.4099Z" fill="#F05A5A"/>
</g>
<defs>
<clipPath id="clip0_87_2333">
<rect width="32" height="32" fill="white"/>
</clipPath>
</defs>
</svg>
