<svg width="32" height="32" viewBox="0 0 32 32" fill="none" xmlns="http://www.w3.org/2000/svg">
<path d="M31.8398 15.3928C27.6355 11.1549 22.033 8.82106 16.0632 8.82106C16.0488 8.82106 16.035 8.82217 16.0206 8.82217C16.0135 8.82217 16.0068 8.82106 16.0002 8.82106C15.9803 8.82106 15.961 8.82382 15.9417 8.82382C10.0177 8.8553 4.4621 11.1836 0.287105 15.3928L0.160088 15.5209C-0.0547362 15.7374 -0.0530794 16.087 0.163402 16.3018C0.27109 16.4084 0.411913 16.462 0.552184 16.462C0.694112 16.462 0.836592 16.4073 0.94428 16.2985L1.0713 16.1704C3.96784 13.2506 7.56463 11.288 11.4845 10.4259C9.86142 11.743 8.82099 13.7515 8.82099 16.0003C8.82099 19.9588 12.0417 23.1795 16.0002 23.1795C19.9587 23.1795 23.1794 19.9588 23.1794 16.0003C23.1794 13.7272 22.1147 11.7016 20.4613 10.3856C24.4518 11.2261 28.1143 13.2059 31.0556 16.1709C31.2704 16.388 31.6205 16.3891 31.8365 16.1742C32.0529 15.9589 32.0546 15.6093 31.8398 15.3928ZM22.0749 15.9997C22.0749 19.3491 19.3496 22.0745 16.0002 22.0745C12.6508 22.0745 9.92549 19.3491 9.92549 15.9997C9.92549 12.6702 12.6194 9.95979 15.9411 9.92776C15.9676 9.92776 15.9941 9.92611 16.0206 9.92611C19.3606 9.93771 22.0749 12.6575 22.0749 15.9997Z" fill="#017EFA"/>
<path d="M19.8809 15.4475C19.576 15.4475 19.3286 15.6949 19.3286 15.9997C19.3286 17.8271 17.8425 19.3132 16.0152 19.3132C14.1878 19.3132 12.7017 17.8271 12.7017 15.9997C12.7017 14.1724 14.1878 12.6863 16.0152 12.6863C16.32 12.6863 16.5674 12.4388 16.5674 12.134C16.5674 11.8292 16.32 11.5818 16.0152 11.5818C13.5792 11.5818 11.5972 13.5638 11.5972 15.9997C11.5972 18.4357 13.5792 20.4177 16.0152 20.4177C18.4511 20.4177 20.4331 18.4357 20.4331 15.9997C20.4331 15.6949 20.1857 15.4475 19.8809 15.4475Z" fill="#017EFA"/>
</svg>
